<?xml version="1.0" encoding="UTF-8"?>
<svg width="252px" height="90px" viewBox="0 0 252 90" version="1.1" xmlns="http://www.w3.org/2000/svg" xmlns:xlink="http://www.w3.org/1999/xlink">
    <title>Artboard</title>
    <defs>
        <polygon id="path-1" points="0.0270230396 21.9500771 37.6621561 43.8505219 75.1142624 21.7824756 37.6621561 0.0496323157"></polygon>
        <polygon id="path-3" points="0.0270230396 21.9500771 37.6621561 43.8505219 75.1142624 21.7824756 37.6621561 0.0496323157"></polygon>
        <polygon id="path-5" points="0.0270230396 21.9500771 37.6621561 43.8505219 75.1142624 21.7824756 37.6621561 0.0496323157"></polygon>
        <polygon id="path-7" points="0.0270230396 21.9500771 37.6621561 43.8505219 75.1142624 21.7824756 37.6621561 0.0496323157"></polygon>
        <polygon id="path-9" points="0.0270230396 21.9500771 37.6621561 43.8505219 75.1142624 21.7824756 37.6621561 0.0496323157"></polygon>
        <polygon id="path-11" points="0.0270230396 21.9500771 37.6621561 43.8505219 75.1142624 21.7824756 37.6621561 0.0496323157"></polygon>
        <polygon id="path-13" points="0.0270230396 21.9500771 37.6621561 43.8505219 75.1142624 21.7824756 37.6621561 0.0496323157"></polygon>
        <polygon id="path-15" points="0.0270230396 21.9500771 37.6621561 43.8505219 75.1142624 21.7824756 37.6621561 0.0496323157"></polygon>
    </defs>
    <g id="Artboard" stroke="none" stroke-width="1" fill="none" fill-rule="evenodd">
        <g id="osm-logo-compact" transform="translate(33.459601, 4.000000)">
            <g id="mesh-logo">
                <g id="dot-grid" transform="translate(4.448134, 55.327158)" fill="#B6E2D6" fill-rule="nonzero">
                    <ellipse id="Oval-9" cx="5.43027043" cy="6.83178182" rx="5.41752634" ry="2.90219983"></ellipse>
                    <ellipse id="Oval-9" cx="33.3783429" cy="23.5999266" rx="5.41752634" ry="2.90219983"></ellipse>
                    <ellipse id="Oval-9" cx="61.3264153" cy="6.83108313" rx="5.41752634" ry="2.90219983"></ellipse>
                    <ellipse id="Oval-9" cx="19.1248259" cy="14.9367228" rx="5.41752634" ry="2.90219983"></ellipse>
                    <ellipse id="Oval-9" cx="47.6318598" cy="14.9360241" rx="5.41752634" ry="2.90219983"></ellipse>
                    <ellipse id="Oval-9" cx="33.3783429" cy="9.62589034" rx="5.41752634" ry="2.90219983"></ellipse>
                    <ellipse id="Oval-9" cx="19.1248259" cy="2.91905169" rx="5.41752634" ry="2.90219983"></ellipse>
                    <ellipse id="Oval-9" cx="47.6318598" cy="2.91835298" rx="5.41752634" ry="2.90219983"></ellipse>
                </g>
                <polygon id="Path-8" fill="#1128A9" fill-rule="nonzero" points="0.0425472445 48.8322291 37.6776803 70.7326738 75.1297865 48.6646275 37.6776803 26.9317843"></polygon>
                <g id="mesh" transform="translate(0.015524, 15.660026)">
                    <polygon id="Path-8" fill="#87E3CB" fill-rule="nonzero" points="0.0270230396 21.9500771 37.6621561 43.8505219 75.1142624 21.7824756 37.6621561 0.0496323157"></polygon>
                    <g id="Path-8" fill="#C8FCEE" fill-rule="nonzero">
                        <polygon id="path-1" points="0.0270230396 21.9500771 37.6621561 43.8505219 75.1142624 21.7824756 37.6621561 0.0496323157"></polygon>
                    </g>
                    <g id="Path-2-Clipped">
                        <mask id="mask-2" fill="white">
                            <use xlink:href="#path-1"></use>
                        </mask>
                        <g id="path-1"></g>
                        <line x1="-23.6167319" y1="37.8630952" x2="92.8893728" y2="-30.4873595" id="Path-2" stroke="#6ED3B9" stroke-width="5" mask="url(#mask-2)"></line>
                    </g>
                    <g id="Path-2-Clipped">
                        <mask id="mask-4" fill="white">
                            <use xlink:href="#path-3"></use>
                        </mask>
                        <g id="path-1"></g>
                        <line x1="-26.9687198" y1="53.2123058" x2="89.5373849" y2="-15.1381489" id="Path-2" stroke="#6ED3B9" stroke-width="5" mask="url(#mask-4)"></line>
                    </g>
                    <g id="Path-2-Clipped">
                        <mask id="mask-6" fill="white">
                            <use xlink:href="#path-5"></use>
                        </mask>
                        <g id="path-1"></g>
                        <line x1="3.21806111" y1="48.6075426" x2="119.724166" y2="-19.7429121" id="Path-2" stroke="#6ED3B9" stroke-width="5" mask="url(#mask-6)"></line>
                    </g>
                    <g id="Path-2-Clipped">
                        <mask id="mask-8" fill="white">
                            <use xlink:href="#path-7"></use>
                        </mask>
                        <g id="path-1"></g>
                        <line x1="2.54862366" y1="62.9334725" x2="119.054729" y2="-5.41698215" id="Path-2" stroke="#6ED3B9" stroke-width="5" mask="url(#mask-8)"></line>
                    </g>
                    <g id="Path-2-Clipped">
                        <mask id="mask-10" fill="white">
                            <use xlink:href="#path-9"></use>
                        </mask>
                        <g id="path-1"></g>
                        <line x1="17.543991" y1="68.0498761" x2="134.050095" y2="-0.300578601" id="Path-2" stroke="#6ED3B9" stroke-width="5" mask="url(#mask-10)"></line>
                    </g>
                    <g id="Path-2-Clipped">
                        <mask id="mask-12" fill="white">
                            <use xlink:href="#path-11"></use>
                        </mask>
                        <g id="path-1"></g>
                        <line x1="47.7307719" y1="63.4451129" x2="164.236877" y2="-4.90534179" id="Path-2" stroke="#6ED3B9" stroke-width="5" mask="url(#mask-12)"></line>
                    </g>
                    <g id="Path-2-Clipped">
                        <mask id="mask-14" fill="white">
                            <use xlink:href="#path-13"></use>
                        </mask>
                        <g id="path-1"></g>
                        <line x1="47.2191316" y1="77.7710428" x2="163.725236" y2="9.42058816" id="Path-2" stroke="#6ED3B9" stroke-width="45" mask="url(#mask-14)"></line>
                    </g>
                    <g id="lines-Clipped">
                        <mask id="mask-16" fill="white">
                            <use xlink:href="#path-15"></use>
                        </mask>
                        <g id="path-1"></g>
                        <g id="lines" mask="url(#mask-16)">
                            <g transform="translate(-26.329486, -34.589717)" id="Path-2">
                                <g transform="translate(95.702497, 54.172248) scale(-1, 1) translate(-95.702497, -54.172248) translate(0.064512, 0.007505)">
                                    <line x1="0.563267812" y1="68.3521842" x2="117.069373" y2="0.0017295804" id="Path" stroke="#6ED3B9" stroke-width="5"></line>
                                    <line x1="0.0516274572" y1="83.7013949" x2="116.557732" y2="15.3509402" id="Path" stroke="#6ED3B9" stroke-width="5"></line>
                                    <line x1="30.2384084" y1="79.0966317" x2="146.744513" y2="10.746177" id="Path" stroke="#6ED3B9" stroke-width="5"></line>
                                    <line x1="29.726768" y1="93.4225613" x2="146.232872" y2="25.072107" id="Path" stroke="#6ED3B9" stroke-width="5"></line>
                                    <line x1="44.5643383" y1="98.5389655" x2="161.070443" y2="30.1885105" id="Path" stroke="#6ED3B9" stroke-width="5"></line>
                                    <line x1="74.7511192" y1="93.9342017" x2="191.257224" y2="25.5837473" id="Path" stroke="#6ED3B9" stroke-width="5"></line>
                                    <line x1="74.2394789" y1="108.260132" x2="190.745584" y2="39.9096772" id="Path" stroke="#6ED3B9" stroke-width="5"></line>
                                </g>
                            </g>
                        </g>
                    </g>
                </g>
                <g id="shapes" transform="translate(9.605760, 0.059844)" fill-rule="nonzero">
                    <polygon id="Path-4" fill="#1128A9" points="0.0717530146 35.8623422 0.0717530146 5.36277808 22.8734319 48.9810834"></polygon>
                    <polygon id="Path-26" fill="#569CF5" points="28.0360762 37.7669291 46.9678988 26.8860512 46.9678988 0.0564706854 28.0360762 10.6352573"></polygon>
                    <g id="orange" transform="translate(35.653421, 12.125796)" fill="#FB8143">
                        <polygon id="Path-25" points="-1.84661009e-15 21.0828293 15.3165214 30.095851 15.3165214 9.14982734 -1.84661009e-15 -5.34609708e-14"></polygon>
                    </g>
                    <polygon id="Path-26" fill="#569CF5" style="mix-blend-mode: overlay;" points="28.0360762 37.7669291 46.9678988 26.8860512 46.9678988 0.0564706854 28.0360762 10.6352573"></polygon>
                </g>
            </g>
            <path d="M108.54266,24.2575446 C109.758319,24.2575446 110.896682,24.0256558 111.957749,23.5618783 C113.018816,23.0981007 113.949885,22.4533796 114.750955,21.6277151 C115.552025,20.8020506 116.179179,19.8428743 116.632416,18.7501863 C117.085653,17.6574982 117.312272,16.4857573 117.312272,15.2349633 C117.312272,13.9771424 117.085653,12.8036446 116.632416,11.7144701 C116.179179,10.6252956 115.552025,9.66787598 114.750955,8.84221144 C113.949885,8.0165469 113.018816,7.37182581 111.957749,6.90804827 C110.896682,6.44427072 109.758319,6.21238195 108.54266,6.21238195 C107.327001,6.21238195 106.188638,6.44427072 105.127571,6.90804827 C104.066504,7.37182581 103.135435,8.0165469 102.334365,8.84221144 C101.533295,9.66787598 100.906141,10.6252956 100.452904,11.7144701 C99.9996668,12.8036446 99.7730483,13.9771424 99.7730483,15.2349633 C99.7730483,16.4857573 99.9996668,17.6574982 100.452904,18.7501863 C100.906141,19.8428743 101.533295,20.8020506 102.334365,21.6277151 C103.135435,22.4533796 104.066504,23.0981007 105.127571,23.5618783 C106.188638,24.0256558 107.327001,24.2575446 108.54266,24.2575446 Z M108.54266,21.6013641 C107.720509,21.6013641 106.95633,21.4415014 106.250123,21.121776 C105.543917,20.8020506 104.92906,20.3558403 104.405554,19.7831453 C103.882047,19.2104504 103.476241,18.5376215 103.188137,17.764659 C102.900034,16.9916964 102.755981,16.1484645 102.755981,15.2349633 C102.755981,14.321462 102.900034,13.4782301 103.188137,12.7052676 C103.476241,11.932305 103.882047,11.2594762 104.405554,10.6867812 C104.92906,10.1140862 105.543917,9.66787598 106.250123,9.34815058 C106.95633,9.02842518 107.720509,8.86856243 108.54266,8.86856243 C109.371838,8.86856243 110.13953,9.02842518 110.845737,9.34815058 C111.551944,9.66787598 112.1668,10.1140862 112.690307,10.6867812 C113.213814,11.2594762 113.619619,11.932305 113.907723,12.7052676 C114.195827,13.4782301 114.339879,14.321462 114.339879,15.2349633 C114.339879,16.1484645 114.195827,16.9916964 113.907723,17.764659 C113.619619,18.5376215 113.213814,19.2104504 112.690307,19.7831453 C112.1668,20.3558403 111.551944,20.8020506 110.845737,21.121776 C110.13953,21.4415014 109.371838,21.6013641 108.54266,21.6013641 Z M124.490314,29.4012592 L124.490314,22.1916264 C124.961118,22.8451312 125.547867,23.3528271 126.250561,23.7147141 C126.953254,24.0766011 127.712162,24.2575446 128.527287,24.2575446 C129.546192,24.2575446 130.457936,24.0063318 131.26252,23.5039061 C132.067104,23.0014804 132.703041,22.3181112 133.170333,21.4537985 C133.637623,20.5894858 133.871269,19.6127422 133.871269,18.5235677 C133.871269,17.4203393 133.635866,16.4383255 133.165062,15.5775262 C132.694258,14.716727 132.05305,14.0368713 131.24144,13.5379591 C130.429829,13.0390469 129.50403,12.7895908 128.464045,12.7895908 C127.641894,12.7895908 126.882985,12.9635073 126.187318,13.3113405 C125.491652,13.6591737 124.925984,14.1457888 124.490314,14.7711857 L124.490314,14.7711857 L124.490314,13.1268835 L121.865755,13.1268835 L121.865755,29.4012592 L124.490314,29.4012592 Z M127.778919,22.0124397 C127.13244,22.0124397 126.554475,21.8631173 126.045023,21.5644727 C125.53557,21.2658281 125.136792,20.8529958 124.848688,20.3259759 C124.560583,19.7989559 124.416532,19.1981532 124.416532,18.5235677 C124.416532,17.8489822 124.56234,17.2481794 124.853958,16.7211595 C125.145575,16.1941396 125.544354,15.7813072 126.050293,15.4826626 C126.556232,15.184018 127.13244,15.0346957 127.778919,15.0346957 C128.425396,15.0346957 128.998091,15.184018 129.497004,15.4826626 C129.995916,15.7813072 130.391181,16.1958963 130.682799,16.7264297 C130.974416,17.2569631 131.120225,17.8595226 131.120225,18.5341081 C131.120225,19.2086936 130.976173,19.8077396 130.688069,20.3312461 C130.399964,20.8547526 130.004699,21.2658281 129.502274,21.5644727 C128.999848,21.8631173 128.425396,22.0124397 127.778919,22.0124397 Z M143.439941,24.2575446 C144.557224,24.2575446 145.570858,24.0168722 146.480846,23.5355273 C147.390834,23.0541824 148.102311,22.3848671 148.615277,21.5275813 L148.615277,21.5275813 L146.707465,20.5473242 C146.292875,21.088398 145.830855,21.4906899 145.321402,21.7541999 C144.811949,22.0177099 144.230471,22.1494648 143.576966,22.1494648 C142.888326,22.1494648 142.27874,22.0106829 141.748207,21.7331191 C141.217673,21.4555553 140.804842,21.069074 140.50971,20.5736752 C140.214579,20.0782765 140.067014,19.5038248 140.067014,18.85032 L140.067014,18.85032 L148.857706,18.85032 C148.878787,18.7097814 148.892841,18.6096476 148.899868,18.5499187 C148.906894,18.4901897 148.910408,18.4146503 148.910408,18.3233001 C148.910408,17.2200717 148.673249,16.2538685 148.198931,15.4246905 C147.724613,14.5955124 147.064081,13.9490346 146.217336,13.4852571 C145.37059,13.0214795 144.385063,12.7895908 143.260754,12.7895908 C142.438603,12.7895908 141.672667,12.9371563 140.962948,13.2322875 C140.253227,13.5274187 139.631343,13.9384942 139.097297,14.4655142 C138.56325,14.9925341 138.145147,15.6038772 137.84299,16.2995435 C137.540831,16.9952099 137.389752,17.7435782 137.389752,18.5446485 C137.389752,19.6267961 137.655018,20.6000262 138.185552,21.4643389 C138.716086,22.3286516 139.436346,23.0102641 140.346334,23.5091763 C141.256322,24.0080885 142.287524,24.2575446 143.439941,24.2575446 Z M146.30693,17.2060178 L140.182958,17.2060178 C140.253227,16.7071057 140.425387,16.2784627 140.699438,15.9200892 C140.973488,15.5617156 141.328347,15.2841518 141.764018,15.0873977 C142.199687,14.8906436 142.695086,14.7922665 143.250214,14.7922665 C143.777234,14.7922665 144.255065,14.8924003 144.683708,15.0926679 C145.112351,15.2929355 145.467211,15.572256 145.748289,15.9306296 C146.029365,16.2890031 146.215579,16.7141325 146.30693,17.2060178 L146.30693,17.2060178 Z M155.832728,23.9202518 L155.832728,17.3008814 C155.832728,16.8511577 155.938132,16.4418389 156.14894,16.072925 C156.359748,15.704011 156.661905,15.4088799 157.055414,15.1875315 C157.448922,14.9661831 157.916213,14.8555089 158.457287,14.8555089 C159.244303,14.8555089 159.860916,15.0996949 160.307127,15.5880666 C160.753337,16.0764384 160.976442,16.7703481 160.976442,17.6697954 L160.976442,17.6697954 L160.976442,23.9202518 L163.601002,23.9202518 L163.601002,17.1216946 C163.601002,16.2363012 163.428841,15.4703655 163.084522,14.8238877 C162.740202,14.17741 162.257101,13.676741 161.635217,13.3218809 C161.013334,12.9670208 160.287802,12.7895908 159.458625,12.7895908 C158.657555,12.7895908 157.946078,12.9424265 157.324194,13.2480981 C156.702311,13.5537697 156.205155,13.9455212 155.832728,14.4233526 L155.832728,14.4233526 L155.832728,13.1268835 L153.208168,13.1268835 L153.208168,23.9202518 L155.832728,23.9202518 Z M105.454323,48.1567156 C108.848332,48.1567156 112.010451,46.7021406 112.010451,42.5492235 C112.010451,40.2724974 109.881291,38.6281952 107.941857,37.8060441 C105.960262,36.9628122 104.31596,36.2671459 104.31596,35.2974292 C104.31596,34.3487933 105.032707,33.7374502 106.381878,33.7374502 C108.173746,33.7374502 109.902371,34.9390556 109.902371,34.9390556 L111.504512,31.776936 C111.504512,31.776936 109.269948,30.1326338 106.107828,30.1326338 C103.304082,30.1326338 100.437093,32.1985519 100.437093,35.4449948 C100.437093,37.2579433 101.65978,38.8811647 103.746779,39.9141238 C105.812697,40.9470829 107.667807,41.5162644 107.667807,42.7811123 C107.667807,44.4043337 106.023505,44.4886569 105.159192,44.4886569 C103.219759,44.4886569 100.900871,42.5281427 100.900871,42.5281427 L98.919276,45.8589087 C98.919276,45.8589087 101.385729,48.1567156 105.454323,48.1567156 Z M120.201512,48.1567156 C122.604723,48.1567156 124.586318,47.3767261 125.809004,45.3318888 L123.110662,43.9827177 C122.204188,44.9524344 121.677168,45.1843232 120.475562,45.1843232 C119.526927,45.1843232 118.135594,44.6151417 118.135594,42.9497587 L125.977651,42.9497587 C125.998731,42.8232739 125.998731,42.5913851 125.998731,42.4438195 C125.998731,38.649276 123.490116,36.7098426 120.201512,36.7098426 C116.933988,36.7098426 114.256727,39.2816999 114.256727,42.4438195 C114.256727,45.5848583 116.933988,48.1567156 120.201512,48.1567156 Z M122.351753,40.8838405 L118.240998,40.8838405 C118.30424,39.893043 119.020987,39.1341343 120.306916,39.1341343 C121.403118,39.1341343 122.183107,39.7454774 122.351753,40.8838405 Z M132.608732,47.8405037 L132.608732,42.1486884 C132.608732,41.874638 132.882783,39.9562854 134.822216,39.9562854 C136.065983,39.9562854 136.76165,40.5465477 136.76165,40.5465477 L138.321629,37.3844281 C138.321629,37.3844281 137.351912,36.7098426 135.960579,36.7098426 C133.831419,36.7098426 132.650894,38.5860336 132.650894,38.5860336 L132.608732,38.5860336 L132.608732,37.0260546 L128.877431,37.0260546 L128.877431,47.8405037 L132.608732,47.8405037 Z M147.187275,47.8405037 L152.984494,37.0260546 L148.557527,37.0260546 L145.922427,42.9075971 L143.287327,37.0260546 L138.86036,37.0260546 L144.657579,47.8405037 L147.187275,47.8405037 Z M156.917234,34.7704092 C158.13992,34.7704092 159.130718,33.7796118 159.130718,32.5569255 C159.130718,31.3342392 158.13992,30.3434418 156.917234,30.3434418 C155.694548,30.3434418 154.70375,31.3342392 154.70375,32.5569255 C154.70375,33.7796118 155.694548,34.7704092 156.917234,34.7704092 Z M158.730183,47.8405037 L158.730183,37.0260546 L154.998882,37.0260546 L154.998882,47.8405037 L158.730183,47.8405037 Z M167.743395,48.1567156 C170.146606,48.1567156 171.369292,47.186999 171.369292,47.186999 L170.104444,44.5940609 C170.104444,44.5940609 169.408778,45.1 168.291495,45.1 C166.879082,45.1 165.719638,43.9194753 165.719638,42.4227387 C165.719638,40.9470829 166.879082,39.7665582 168.291495,39.7665582 C169.408778,39.7665582 170.104444,40.2724974 170.104444,40.2724974 L171.369292,37.7217209 C171.369292,37.7217209 170.146606,36.7098426 167.743395,36.7098426 C164.602356,36.7098426 161.756448,39.2816999 161.756448,42.4649003 C161.756448,45.6270199 164.623437,48.1567156 167.743395,48.1567156 Z M179.22306,48.1567156 C181.626271,48.1567156 183.607866,47.3767261 184.830552,45.3318888 L182.13221,43.9827177 C181.225736,44.9524344 180.698716,45.1843232 179.49711,45.1843232 C178.548474,45.1843232 177.157142,44.6151417 177.157142,42.9497587 L184.999198,42.9497587 C185.020279,42.8232739 185.020279,42.5913851 185.020279,42.4438195 C185.020279,38.649276 182.511664,36.7098426 179.22306,36.7098426 C175.955536,36.7098426 173.278275,39.2816999 173.278275,42.4438195 C173.278275,45.5848583 175.955536,48.1567156 179.22306,48.1567156 Z M181.373301,40.8838405 L177.262546,40.8838405 C177.325788,39.893043 178.042535,39.1341343 179.328464,39.1341343 C180.424665,39.1341343 181.204655,39.7454774 181.373301,40.8838405 Z M102.7349,71.7607555 L103.557051,61.4522455 L103.662455,61.4522455 L107.22511,71.6553515 L109.586159,71.6553515 L113.148814,61.4522455 L113.254218,61.4522455 L114.076369,71.7607555 L118.039559,71.7607555 L116.47958,54.3690976 L112.263421,54.3690976 L108.405635,64.4035572 L104.547849,54.3690976 L100.331689,54.3690976 L98.7717104,71.7607555 L102.7349,71.7607555 Z M125.977651,72.0769675 C128.380862,72.0769675 130.362456,71.296978 131.585143,69.2521406 L128.886801,67.9029696 C127.980326,68.8726863 127.453306,69.104575 126.251701,69.104575 C125.303065,69.104575 123.911732,68.5353935 123.911732,66.8700105 L131.753789,66.8700105 C131.77487,66.7435257 131.77487,66.5116369 131.77487,66.3640714 C131.77487,62.5695278 129.266255,60.6300944 125.977651,60.6300944 C122.710127,60.6300944 120.032866,63.2019517 120.032866,66.3640714 C120.032866,69.5051102 122.710127,72.0769675 125.977651,72.0769675 Z M128.127892,64.8040923 L124.017136,64.8040923 C124.080379,63.8132949 124.797126,63.0543861 126.083055,63.0543861 C127.179256,63.0543861 127.959246,63.6657293 128.127892,64.8040923 Z M138.005417,72.0769675 C140.2189,72.0769675 143.12805,71.5710283 143.12805,68.3878279 C143.12805,66.1743442 141.27294,65.3732739 139.839446,64.9305771 C138.911891,64.635446 138.152982,64.4667996 138.152982,63.897618 C138.152982,63.3916789 138.490275,63.2441133 139.312426,63.2441133 C140.450789,63.2441133 141.715637,63.9186988 141.715637,63.9186988 L142.938323,61.4733263 C142.938323,61.4733263 141.399425,60.6300944 139.312426,60.6300944 C136.466518,60.6300944 134.590327,61.8949423 134.590327,64.108426 C134.590327,65.7316474 135.686529,66.4905561 136.78273,67.0597377 C138.005417,67.6921616 139.185941,67.755404 139.185941,68.5353935 C139.185941,69.2521406 138.553517,69.315383 138.026497,69.315383 C136.824892,69.315383 135.349236,68.0716159 135.349236,68.0716159 L133.831419,70.6223924 C133.831419,70.6223924 135.391398,72.0769675 138.005417,72.0769675 Z M149.885617,71.7607555 L149.885617,65.6473242 C149.885617,64.5722036 150.981819,63.5392445 152.099101,63.5392445 C153.300706,63.5392445 154.038534,64.5722036 154.038534,65.6473242 L154.038534,71.7607555 L157.769835,71.7607555 L157.769835,64.635446 C157.769835,61.6208919 155.008251,60.6300944 153.026656,60.6300944 C151.846131,60.6300944 150.771011,61.2414376 149.927779,62.0846695 L149.885617,62.0846695 L149.885617,53.6312697 L146.154316,53.6312697 L146.154316,71.7607555 L149.885617,71.7607555 Z" id="OpenServiceMesh" fill="#1128A9" fill-rule="nonzero"></path>
        </g>
    </g>
</svg>