<svg height="579" viewBox="0 0 515 579" width="515" xmlns="http://www.w3.org/2000/svg"><g fill="none"><path d="m24.953125 289.765625 200.730469 200.730469" stroke="#bcedc4" stroke-linecap="round" stroke-linejoin="round" stroke-width="40"/><path d="m24.953125 88.765625 200.730469 200.730469" stroke="#bcedc4" stroke-linecap="round" stroke-linejoin="round" stroke-width="40" transform="matrix(-1 0 0 1 250.636718 0)"/><path d="m224.953125 89.765625 200.730469 200.730469" stroke="#bcedc4" stroke-linecap="round" stroke-linejoin="round" stroke-width="40" transform="matrix(-1 0 0 1 650.636718 0)"/><path d="m224.953125 287.765625 200.730469 200.730469" stroke="#bcedc4" stroke-linecap="round" stroke-linejoin="round" stroke-width="40" transform="matrix(-1 0 0 1 650.636718 0)"/><g fill="#42a7b6"><circle cx="25" cy="89" r="25"/><circle cx="225" cy="89" r="25"/><circle cx="425" cy="89" r="25"/><circle cx="25" cy="289" r="25"/><circle cx="225" cy="289" r="25"/><circle cx="425" cy="289" r="25"/><circle cx="425" cy="489" r="25"/><circle cx="25" cy="489" r="25"/></g><path d="m170 434h110v110h-110z" fill="#2a2dde" stroke="#2a2dde" stroke-width="70"/><circle cx="225" cy="489" fill="#fff" r="25"/><circle cx="425" cy="90" fill="#fff" r="57.5" stroke="#fb8143" stroke-width="65"/></g></svg>