<?xml version="1.0" encoding="utf-8"?>
<!-- Generator: Adobe Illustrator 15.0.0, SVG Export Plug-In . SVG Version: 6.00 Build 0)  -->
<!DOCTYPE svg PUBLIC "-//W3C//DTD SVG 1.1//EN" "http://www.w3.org/Graphics/SVG/1.1/DTD/svg11.dtd">
<svg version="1.1" id="Layer_1" xmlns="http://www.w3.org/2000/svg" xmlns:xlink="http://www.w3.org/1999/xlink" x="0px" y="0px"
	 width="422.158px" height="117.598px" viewBox="0 0 422.158 117.598" enable-background="new 0 0 422.158 117.598"
	 xml:space="preserve">
<g id="Gloo_Mesh" transform="translate(7395 -4782)">
	<path id="Path_35924" fill="#0F7FB1" d="M-6994.002,4843.477c0.654-0.604,1.403-1.099,2.218-1.458
		c1.402-0.595,2.914-0.891,4.438-0.868c1.537-0.03,3.063,0.276,4.468,0.898c1.27,0.576,2.389,1.439,3.268,2.52
		c0.907,1.129,1.589,2.422,2.011,3.808c0.47,1.524,0.682,3.116,0.632,4.71c-0.121,7.735-0.242,15.472-0.362,23.208l-12.656,1.083
		v-21.894c0.01-0.653-0.251-1.283-0.722-1.738c-0.515-0.494-1.208-0.755-1.919-0.723c-0.712-0.017-1.407,0.228-1.95,0.69
		c-0.545,0.472-0.844,1.169-0.81,1.889v14.105c0,5.261,1.297,7.84-3.377,7.44c-2.406-0.205-2.68-0.23-5.093-0.438
		c-2.843-0.24-4.143-2.382-4.172-5.588c-0.121-13.275-0.225-25.247-0.341-38.298c-0.044-5.107,4.36-4.703,9.737-4.694
		c4.133,0,3.589,2.925,3.491,7.008c-0.092,3.712-0.075,3.042-0.144,5.777c-0.078,3.12-0.294,3.996,1.283,2.558 M-7031.772,4864.969
		c1.142,0.199,2.298,0.296,3.456,0.289c0.543,0,1.114-0.008,1.716-0.028c0.545-0.014,1.091-0.072,1.626-0.174
		c0.438-0.078,0.853-0.246,1.221-0.494c0.332-0.241,0.52-0.636,0.492-1.046c0.001-0.581-0.357-1.101-0.899-1.307
		c-0.716-0.334-1.453-0.616-2.209-0.843c-0.871-0.271-1.829-0.592-2.874-0.963c-1.047-0.369-2.021-0.919-2.876-1.627
		c-0.931-0.792-1.684-1.772-2.207-2.876c-0.658-1.479-0.967-3.089-0.9-4.705c0.002-1.296,0.258-2.578,0.754-3.776
		c0.543-1.296,1.378-2.448,2.44-3.369c1.276-1.093,2.757-1.923,4.356-2.44c2.084-0.664,4.262-0.978,6.447-0.929
		c0.969,0,1.937,0.04,2.905,0.121c0.968,0.081,1.888,0.186,2.76,0.319c0.87,0.135,1.673,0.271,2.407,0.407
		c1.699,0.313,2.826,3.301,2.186,5.275c-0.841,2.606-0.63,5.169-3.174,4.746c-0.998-0.16-2.009-0.238-3.02-0.233
		c-0.233,0-0.601,0.011-1.105,0.03s-1.011,0.078-1.509,0.175c-0.472,0.084-0.924,0.251-1.336,0.493
		c-0.354,0.177-0.577,0.536-0.582,0.93c-0.005,0.611,0.363,1.164,0.93,1.395c0.739,0.354,1.507,0.645,2.295,0.87
		c0.91,0.271,1.908,0.601,2.993,0.987c1.08,0.386,2.09,0.945,2.991,1.655c0.962,0.782,1.745,1.763,2.295,2.877
		c0.676,1.473,0.994,3.085,0.929,4.705c0.068,1.839-0.406,3.657-1.366,5.229c-0.907,1.392-2.144,2.539-3.601,3.341
		c-1.604,0.872-3.343,1.469-5.144,1.77c-1.993,0.355-4.015,0.529-6.041,0.522c-1.601,0.002-3.202-0.095-4.793-0.288
		c-2.431-0.3-4.005-1.125-4.624-2.54c-0.237-0.989-0.317-2.01-0.239-3.024c-0.187-2.937,0.722-5.941,3.29-5.475 M-7108.042,4835.645
		c2.36,3.097,4.24,5.57,6.598,8.666l6.01-8.185c1.309-1.783,1.875-2.768,4.127-2.834l7.32-0.241
		c3.081-0.099,3.069,1.685,3.965,4.682c3.959,13.238,6.964,23.283,10.859,36.313c0.811,2.713-0.582,3.586-3.459,3.761l-10.365,0.627
		c-2.663,0.16-3.17,0.18-4.092-2.555c-1.646-4.913-3.294-9.826-4.943-14.739c-1.977,3.458-2.972,5.317-4.992,8.752
		c-0.397,0.675-5.725,1.634-6.721,0.346c-3.361-4.349-3.897-5.395-6.437-8.907c-1.076,4.878-1.883,8.533-2.958,13.411
		c-0.468,2.123-1.927,2.855-4.202,2.837c-4.654-0.037-7.017,0.079-11.636,0.12c-3.083,0.028-3.23-1.192-2.422-4.011
		c3.694-12.902,6.877-24.002,10.572-36.904c0.803-2.806,2.045-2.792,4.764-2.839l4.77-0.083c1.955-0.033,2.083,0.263,3.237,1.782
		 M-7037.564,4872.413c-1.652,1.221-3.484,2.174-5.433,2.827c-2.855,0.818-5.815,1.212-8.786,1.166
		c-2.549,0.031-5.078-0.446-7.441-1.404c-2.161-0.89-4.139-2.177-5.826-3.795c-7.908-7.589-5.326-20.912,0.12-26.358
		c1.624-1.624,3.567-2.896,5.707-3.729c2.22-0.866,4.582-1.302,6.964-1.286c3.689-0.087,7.314,0.978,10.368,3.049
		c2.169,1.324,3.949,3.199,5.159,5.435c1.277,2.323-0.078,4.158-2.185,5.742c-5.253,3.954-9.044,6.443-14.298,10.397
		c0.542,0.271,1.131,0.434,1.732,0.481c0.655,0.076,1.313,0.116,1.972,0.12c1.6,0.04,3.187-0.299,4.633-0.985
		c0.746-0.389,1.458-0.84,2.128-1.349c1.794-1.323,2.151,0.376,3.471,2.549l2.166,3.565c0.969,1.597,1.1,2.578-0.448,3.584
		 M-7048.312,4851.85c-0.473-0.614-1.103-1.089-1.822-1.374c-0.721-0.251-1.479-0.373-2.242-0.361
		c-0.757-0.009-1.506,0.165-2.182,0.507c-0.653,0.338-1.233,0.805-1.703,1.374c-0.962,1.171-1.491,2.639-1.493,4.154
		c-0.021,0.513,0.028,1.026,0.15,1.524c0.106,0.317,0.237,0.626,0.388,0.926L-7048.312,4851.85z"/>
	<path id="Path_35925" fill="#54ACD5" d="M-7241.018,4844.668c-1.234-0.611-2.595-0.918-3.972-0.896
		c-1.53,0.021-3.042,0.336-4.453,0.926c-1.547,0.621-2.977,1.502-4.227,2.606c-1.303,1.157-2.374,2.551-3.156,4.109
		c-0.849,1.708-1.276,3.595-1.245,5.501c-0.106,1.567,0.204,3.137,0.898,4.546c0.544,1.046,1.393,1.904,2.432,2.461
		c1.013,0.508,2.141,0.738,3.271,0.666c6.499-0.313,13.627-6.851,5.678-5.34c-3.867,0.734-6.404,0.984-5.949-2.562
		c0.47-3.667,0.504-5.631,6.173-6.347l12.988-1.638c6.569-0.828,8.23,0.722,7.543,6.217c-0.391,2.287-1.174,4.492-2.315,6.514
		c-0.907,1.836-1.942,3.606-3.097,5.296c-0.831,1.235-1.729,2.424-2.692,3.562c-0.714,0.812-1.11,1.255-1.187,1.332
		c-1.494,1.466-3.202,2.694-5.065,3.646c-2.024,1.058-4.175,1.854-6.399,2.376c-2.314,0.544-4.688,0.786-7.065,0.723
		c-2.37-0.047-4.716-0.478-6.948-1.274c-2.243-0.817-4.314-2.045-6.109-3.62c-1.961-1.744-3.514-3.899-4.546-6.312
		c-1.269-2.726-2.033-5.658-2.258-8.655c-0.408-5.59,0.938-11.165,3.852-15.951c1.436-2.379,3.188-4.552,5.21-6.458
		c2.043-1.922,4.332-3.567,6.805-4.892c2.49-1.344,5.162-2.319,7.933-2.895c0.08,0,0.495-0.048,1.244-0.145
		c1.087-0.102,2.182-0.111,3.271-0.029c1.626,0.112,3.237,0.395,4.805,0.843c2.018,0.583,3.961,1.4,5.79,2.432
		c7.855,4.292,5.333,6.248,2.954,9.484c-0.887,1.237-1.867,2.405-2.933,3.491c-1.722,1.652-4.085,1.886-7.229,0.287"/>
	<path id="Path_35926" fill="#54ACD5" d="M-7218.951,4829.883l2.868-0.228c5.197-0.414,5.953-0.022,5.897,5.281
		c-0.136,12.209-0.241,21.191-0.374,33.4c-0.044,3.971,0.014,7.447-3.497,7.749l-3.999,0.343c-5.496,0.472-4.756-0.822-4.803-6.197
		c-0.11-12.507-0.186-21.338-0.295-33.845c-0.047-5.416-1.042-6.083,4.212-6.499"/>
	<path id="Path_35927" fill="#54ACD5" d="M-7196.172,4861.259c0.548,1.403,1.697,2.487,3.129,2.954
		c1.623,0.447,3.354,0.28,4.864-0.465c1.56-0.583,2.863-1.701,3.676-3.156c0.676-1.331,0.707-2.897,0.086-4.255
		c-0.567-1.385-1.71-2.452-3.129-2.925c-1.599-0.47-3.317-0.314-4.806,0.434c-1.587,0.577-2.912,1.708-3.731,3.187
		c-0.675,1.321-0.707,2.88-0.086,4.227 M-7160.442,4861.259c0.547,1.403,1.695,2.487,3.128,2.954
		c1.622,0.446,3.354,0.28,4.861-0.465c1.563-0.583,2.865-1.701,3.679-3.156c0.675-1.331,0.708-2.897,0.087-4.255
		c-0.567-1.385-1.71-2.452-3.128-2.925c-1.601-0.47-3.317-0.314-4.808,0.434c-1.587,0.577-2.912,1.708-3.73,3.187
		c-0.675,1.321-0.705,2.879-0.087,4.227 M-7136.12,4856.337c0.396,2.479,0.268,5.014-0.377,7.442
		c-0.595,2.214-1.639,4.282-3.067,6.078c-1.446,1.787-3.239,3.264-5.27,4.343c-2.188,1.166-4.572,1.922-7.033,2.229
		c-2.466,0.352-4.975,0.273-7.414-0.231c-2.264-0.462-4.411-1.376-6.312-2.69c-1.876-1.316-3.455-3.012-4.634-4.978
		c-0.904-1.503-1.57-3.137-1.97-4.846l-0.025,0.097c-0.598,2.216-1.641,4.285-3.07,6.079c-1.445,1.788-3.238,3.265-5.269,4.344
		c-2.19,1.166-4.574,1.922-7.036,2.229c-2.465,0.353-4.973,0.274-7.412-0.23c-2.264-0.463-4.41-1.378-6.311-2.691
		c-1.875-1.317-3.454-3.014-4.632-4.979c-1.278-2.153-2.087-4.551-2.375-7.038c-0.395-2.478-0.267-5.013,0.376-7.44
		c1.195-4.504,4.218-8.302,8.338-10.479c2.189-1.166,4.574-1.923,7.036-2.231c2.455-0.351,4.953-0.272,7.381,0.233
		c2.255,0.465,4.393,1.38,6.283,2.691c1.882,1.323,3.459,3.03,4.632,5.008c0.915,1.531,1.594,3.192,2.015,4.926l0.043-0.15
		c1.193-4.504,4.216-8.304,8.335-10.479c2.191-1.167,4.574-1.923,7.037-2.23c2.455-0.352,4.954-0.273,7.382,0.232
		c2.255,0.466,4.392,1.381,6.283,2.691c1.881,1.324,3.459,3.03,4.632,5.009C-7137.274,4851.441-7136.448,4853.844-7136.12,4856.337"
		/>
	<path id="Path_35928" fill="#54ACD5" d="M-7144.938,4839.326c-2.148,0.898-4.065,2.272-5.605,4.019l2.533,1.926
		c0.673-0.699,5.536-0.442,4.813-1.005c-1.443-1.123-0.536-2.105,0.767-2.646c2.459-1.437,3.221,5.089,9.464,3.209
		c3.616-0.878,5.837-4.523,4.957-8.14c-0.054-0.228-0.122-0.453-0.199-0.673c-1.276-3.66-5.678-5.547-9.828-4.212
		c-2.221,0.667-3.777,2.663-3.883,4.979c-0.188,2.249-0.41,1.462-3.023,2.55"/>
	<path id="Path_35929" fill="#FFFFFF" d="M-7132.608,4833.979c-1.438,0-2.604,1.166-2.604,2.604l0,0c0,2.62,5.19,2.752,5.19-0.378
		c-0.026-1.266-1.075-2.271-2.341-2.244C-7132.445,4833.963-7132.526,4833.969-7132.608,4833.979"/>
	<path id="Path_35930" fill="#54ACD5" d="M-7358.342,4816.645c2.66,1.113,5.031,2.814,6.938,4.975l-3.135,2.382
		c-0.833-0.867-6.86-0.547-5.966-1.245c1.782-1.391,0.664-2.608-0.95-3.278c-3.043-1.775-3.987,6.301-11.709,3.974
		c-4.479-1.083-7.231-5.592-6.148-10.07c0.069-0.284,0.152-0.564,0.25-0.84c1.585-4.53,7.031-6.866,12.17-5.217
		c2.749,0.824,4.677,3.296,4.806,6.163C-7361.854,4816.274-7361.578,4815.294-7358.342,4816.645"/>
	<path id="Path_35931" fill="#54ACD5" d="M-7311.809,4850.298c-1.116-2.583,8.305-9.092,14.022-14.262
		c5.718-5.169,9.222-3.498,10.864-1.487c1.643,2.011,0.91,6.825-4.404,10.46c-5.313,3.634-19.366,7.875-20.481,5.296"/>
	<g id="Group_21173" transform="translate(-7381.262 4847.93)" opacity="0.24">
		<g id="Group_21172" transform="translate(0 0)">
			<g>
				<defs>
					<rect id="SVGID_1_" x="6.918" y="31.221" width="73.611" height="2.646"/>
				</defs>
				<clipPath id="SVGID_2_">
					<use xlink:href="#SVGID_1_"  overflow="visible"/>
				</clipPath>
				<g id="Group_21171" clip-path="url(#SVGID_2_)">
					<path id="Path_35932" d="M43.719,31.221c20.326,0,36.806,0.592,36.806,1.324c0,0.731-16.478,1.323-36.806,1.323
						S6.914,33.277,6.914,32.545C6.914,31.813,23.392,31.221,43.719,31.221"/>
				</g>
			</g>
		</g>
	</g>
	<path id="Path_35933" fill="#54ACD5" d="M-7351.239,4880.72c7.243,0,8.62-4.722,13.409-4.76c4.789-0.04,6.867,4.76,13.855,4.76
		c11.295,0,18.646-24.251,18.646-37.524c0-17.008-14.42-28.453-32.209-28.453c-17.79,0-32.209,11.444-32.209,28.453
		C-7369.747,4863.319-7361.151,4880.72-7351.239,4880.72"/>
	<path id="Path_35934" fill="#FFFFFF" d="M-7300.499,4841.562c-0.348-1.117,2.347-1.969,5.101-4.443s4.665-2.667,5.013-1.551
		c0.348,1.115-1.014,2.941-3.645,4.411C-7296.662,4841.447-7300.151,4842.68-7300.499,4841.562"/>
	<path id="Path_35935" fill="#FFFFFF" d="M-7368.47,4808.295c1.932,0,3.498,1.566,3.498,3.498c0,3.519-6.98,3.697-6.98-0.508
		c0-1.934,1.543-2.991,3.477-2.991"/>
	<path id="Path_35936" fill="#54ACD5" d="M-7362.79,4844.9c-1.287-2.504-12.297,0.638-19.921,1.768
		c-7.623,1.131-8.561,4.899-8.051,7.445c0.509,2.545,4.693,5.037,10.875,3.248c6.182-1.789,18.385-9.952,17.099-12.456"/>
	<path id="Path_35937" fill="#FFFFFF" d="M-7385.854,4853.765c-0.142-0.726-0.778-1.25-1.518-1.253
		c-0.609-0.096-1.181,0.32-1.278,0.929c-0.01,0.068-0.015,0.139-0.013,0.207c0.142,0.727,0.777,1.251,1.517,1.251
		c0.609,0.097,1.181-0.317,1.278-0.927C-7385.856,4853.903-7385.852,4853.834-7385.854,4853.765 M-7372.542,4850.715
		c-0.017-1.191-2.018,1.745-8.813,2.396c-2.425,0.231-3.605,0.015-3.81,1.101c-0.085,0.465,0.053,1.684,3.44,1.307
		C-7378.337,4855.141-7372.526,4852.035-7372.542,4850.715"/>
	<path id="Path_35938" fill="#0F7FB1" d="M-7288.635,4814.338c0.526-0.004,1.049,0.099,1.534,0.302l4.889-5.21
		c-0.055-0.136-0.098-0.277-0.128-0.421c-0.291-1.354,0.571-2.687,1.925-2.977c1.354-0.291,2.687,0.571,2.977,1.925
		c0.291,1.354-0.571,2.686-1.924,2.977c-0.439,0.094-0.896,0.069-1.323-0.074l-4.766,5.081c0.382,0.516,0.63,1.118,0.722,1.753
		l6.729,0.998c0.912-2.221,3.451-3.282,5.672-2.371c2.221,0.911,3.282,3.451,2.371,5.672c-0.912,2.222-3.452,3.283-5.672,2.371
		c-1.492-0.612-2.522-2-2.677-3.605l-6.687-0.992c-0.246,0.584-0.629,1.1-1.118,1.503l2.321,5.195
		c1.386,0.014,2.498,1.147,2.484,2.532c-0.013,1.385-1.146,2.498-2.532,2.484c-1.386-0.013-2.498-1.147-2.484-2.532
		c0.005-0.6,0.226-1.178,0.622-1.629l-2.32-5.195c-0.937,0.14-1.893-0.063-2.692-0.572l-3.618,3.857
		c1.305,2.016,0.729,4.708-1.286,6.013c-2.017,1.305-4.708,0.729-6.014-1.287c-1.305-2.016-0.729-4.708,1.287-6.013
		c1.353-0.877,3.081-0.932,4.487-0.145l3.74-3.989c-0.208-0.418-0.338-0.871-0.385-1.335l-7.599-1.126
		c-0.754,1.16-2.307,1.488-3.467,0.734c-1.16-0.755-1.488-2.307-0.734-3.467s2.307-1.488,3.467-0.734
		c0.503,0.327,0.872,0.824,1.04,1.4l7.642,1.133c0.246-0.525,0.605-0.99,1.052-1.359l-2.563-5.74
		c-2.362,0.423-4.62-1.149-5.042-3.511c-0.423-2.362,1.149-4.62,3.512-5.042c2.362-0.422,4.619,1.149,5.042,3.512
		c0.283,1.585-0.333,3.197-1.602,4.188l2.563,5.739c0.185-0.028,0.373-0.042,0.56-0.043"/>
	<path id="Path_35939" fill="#FFFFFF" d="M-7293.693,4801.643c0.54,0.106,0.919,0.481,0.849,0.835
		c-0.071,0.354-0.565,0.556-1.104,0.448c-0.54-0.107-0.919-0.481-0.843-0.835c0.077-0.354,0.564-0.555,1.104-0.448"/>
	<path id="Path_35940" fill="#FFFFFF" d="M-7273.135,4816.688c0.54,0.107,0.918,0.481,0.849,0.837
		c-0.07,0.355-0.565,0.555-1.104,0.447c-0.539-0.107-0.919-0.481-0.848-0.836
		C-7274.168,4816.781-7273.674,4816.582-7273.135,4816.688"/>
	<path id="Path_35941" fill="#FFFFFF" d="M-7297.867,4824.563c0.54,0.108,0.919,0.481,0.849,0.835
		c-0.071,0.354-0.565,0.555-1.104,0.449c-0.54-0.105-0.92-0.481-0.843-0.836c0.077-0.355,0.563-0.555,1.104-0.448"/>
	<path id="Path_35942" fill="#FFFFFF" d="M-7288.315,4815.366c0.54,0.108,0.92,0.482,0.849,0.837
		c-0.071,0.355-0.564,0.555-1.104,0.447c-0.539-0.109-0.919-0.482-0.842-0.836c0.077-0.354,0.563-0.553,1.104-0.448"/>
	<path id="Path_35943" fill="#003C6A" d="M-7278.088,4829.446c-0.008-0.137,0.097-0.255,0.235-0.263
		c0.108-0.006,0.208,0.059,0.247,0.16c0.148,0.593,0.113,1.217-0.1,1.79c-0.224,0.538-0.628,0.982-1.144,1.255
		c-0.122,0.063-0.271,0.015-0.334-0.106c-0.061-0.117-0.019-0.26,0.094-0.328c0.415-0.219,0.741-0.575,0.923-1.008
		c0.176-0.481,0.202-1.004,0.075-1.501 M-7279.187,4828.7c-0.042-0.131,0.032-0.271,0.163-0.313s0.271,0.032,0.312,0.164
		c0.189,0.72,0.12,1.485-0.198,2.159c-0.261,0.652-0.779,1.167-1.434,1.425c-0.127,0.051-0.271-0.012-0.321-0.139
		c-0.051-0.127,0.012-0.271,0.139-0.322c0.008-0.003,0.017-0.006,0.025-0.008c0.521-0.213,0.933-0.632,1.137-1.158
		c0.269-0.562,0.332-1.202,0.177-1.805"/>
	<path id="Path_35944" fill="#003C6A" d="M-7300.664,4800.392c0.152-0.087,0.204-0.28,0.117-0.432
		c-0.087-0.151-0.28-0.203-0.431-0.116l0,0c-0.688,0.362-1.25,0.924-1.612,1.611c-0.319,0.669-0.396,1.429-0.217,2.148
		c0.038,0.17,0.208,0.276,0.377,0.237c0.169-0.039,0.276-0.207,0.237-0.377c-0.146-0.578-0.086-1.19,0.168-1.729
		C-7301.716,4801.16-7301.242,4800.691-7300.664,4800.392 M-7299.032,4800.793c0.163-0.064,0.242-0.249,0.178-0.412
		c-0.064-0.162-0.249-0.241-0.412-0.177c-0.009,0.003-0.019,0.008-0.028,0.013c-0.843,0.431-1.507,1.146-1.875,2.019
		c-0.396,0.8-0.444,1.729-0.132,2.566c0.069,0.16,0.255,0.233,0.415,0.164s0.233-0.254,0.165-0.415
		c-0.242-0.675-0.195-1.42,0.128-2.06c0.306-0.733,0.86-1.334,1.564-1.7"/>
	<path id="Path_35945" fill="#0F7FB1" d="M-7384.21,4838.466c3.19,0,5.777,2.587,5.777,5.778c0,3.19-2.587,5.776-5.777,5.776
		s-5.777-2.586-5.777-5.776l0,0C-7389.987,4841.053-7387.4,4838.466-7384.21,4838.466"/>
	<path id="Path_35946" fill="#FFFFFF" d="M-7382.874,4839.945c0.858,0.171,1.462,0.765,1.35,1.331
		c-0.112,0.566-0.899,0.884-1.757,0.712c-0.859-0.171-1.46-0.766-1.351-1.331
		C-7384.522,4840.094-7383.732,4839.774-7382.874,4839.945"/>
	<path id="Path_35947" fill="#5BBAE0" d="M-7335.942,4815.711c15.723,0,28.469,12.744,28.47,28.467c0,0,0,0.001,0,0.003
		c0,28.643-56.761,30.088-56.761-4.134C-7364.233,4824.324-7351.665,4815.711-7335.942,4815.711"/>
	<path id="Path_35948" fill="#003C6A" d="M-7337.295,4847.706c4.828,0,6.605-1.696,8.7,0.175c2.096,1.869-1.877,8.05-8.741,8.05
		c-6.864,0-10.719-6.113-8.742-8.05s3.957-0.175,8.786-0.175"/>
	<path id="Path_35949" fill="#54ACD5" d="M-7332.713,4853.83c-2.89,1.746-6.516,1.719-9.378-0.069
		c0.106-1.465,2.725-2.255,4.687-1.285c2.059-0.97,4.647-0.144,4.694,1.353"/>
	<path id="Path_35950" fill="#FFFFFF" d="M-7337.296,4848.262c3.16,0,4.901-0.683,6.332-0.68c0,0.024,0,0.049,0,0.073
		c0.04,1.063-0.788,1.956-1.849,1.998c-0.321-0.001-0.635-0.091-0.908-0.26c-0.545,1.02-1.813,1.405-2.832,0.86
		c-0.289-0.153-0.537-0.372-0.725-0.641c-0.667,0.945-1.975,1.17-2.919,0.502c-0.277-0.196-0.502-0.457-0.657-0.758
		c-0.284,0.19-0.619,0.294-0.962,0.294c-1.062-0.041-1.889-0.936-1.849-1.996c0-0.032,0-0.065,0-0.096
		c2.108,0.348,4.234,0.583,6.368,0.702"/>
	<path id="Path_35951" fill="#EEF7F8" d="M-7311.631,4833.031c0.718-0.037,1.361,0.441,1.533,1.14
		c0.251,0.555,0.006,1.209-0.55,1.461c-0.056,0.025-0.113,0.046-0.172,0.062c-0.719,0.038-1.363-0.441-1.535-1.14
		c-0.252-0.556-0.007-1.209,0.548-1.461c0.056-0.026,0.114-0.046,0.174-0.063 M-7336.847,4824.292
		c-5.563,1.14-7.291-4.226-0.257-5.923c8.811-2.128,21.319,3.611,25.071,11.524c0.999,2.106-0.563,2.894-2.269,0.786
		C-7319.025,4824.835-7327.516,4822.375-7336.847,4824.292"/>
	<path id="Path_35952" fill="#003C6A" d="M-7318.781,4837.126c2.797,0,5.064,2.267,5.064,5.064c0,2.797-2.267,5.064-5.064,5.064
		c-2.796,0-5.064-2.268-5.064-5.064l0,0C-7323.846,4839.393-7321.578,4837.126-7318.781,4837.126"/>
	<path id="Path_35953" fill="#EEF7F8" d="M-7316.484,4838.748c0.779,0,1.411,0.633,1.41,1.413c0,0.779-0.633,1.411-1.413,1.411
		c-0.779-0.001-1.411-0.633-1.411-1.412C-7317.897,4839.379-7317.264,4838.748-7316.484,4838.748"/>
	<path id="Path_35954" fill="#003C6A" d="M-7352.431,4837.126c2.797,0,5.064,2.267,5.064,5.064c0,2.797-2.267,5.064-5.064,5.064
		s-5.064-2.268-5.064-5.064l0,0C-7357.495,4839.393-7355.228,4837.126-7352.431,4837.126"/>
	<path id="Path_35955" fill="#EEF7F8" d="M-7350.136,4838.748c0.78,0,1.411,0.633,1.411,1.413c0,0.779-0.633,1.411-1.413,1.411
		c-0.779-0.001-1.411-0.633-1.411-1.412c0-0.78,0.632-1.412,1.412-1.412C-7350.137,4838.748-7350.136,4838.748-7350.136,4838.748"/>
</g>
</svg>
