<svg height="14" viewBox="0 0 70 14" width="70" xmlns="http://www.w3.org/2000/svg"><path d="m1 84.4375h3.64885496c3.45038168 0 6.35114504 2.7363636 6.35114504 6.5545455 0 3.8340909-2.88549618 6.5704545-6.35114504 6.5704545h-3.64885496zm2.91666667 10.5h.45770202c2.19381313 0 3.69318182-1.7070552 3.70896464-3.9294479 0-2.2223926-1.49936868-3.9455521-3.70896464-3.9455521h-.45770202zm16.23503893-.9177026h-5.5655297c0 1.2730203.9874327 1.7081032 1.6606823 1.7081032.8527827 0 1.2268103-.177256 1.8701376-.9185083l1.915021 1.0313075c-.8677439 1.5630755-2.2740874 2.1593002-3.9796529 2.1593002-2.3189707 0-4.2190306-1.96593-4.2190306-4.3669429 0-2.4171271 1.9000599-4.3830571 4.2190306-4.3830571 2.3339317 0 4.1143028 1.4825046 4.1143028 4.3830571 0 .1127993 0 .2900552-.0149611.3867403zm-5.8183723-1.7072974h2.9166667c-.1196581-.8539157-.6730769-1.3125-1.4508547-1.3125-.9123932 0-1.4209402.5692771-1.465812 1.3125zm8.3333334-7.875c.9206349 0 1.6666666.7833333 1.6666666 1.75s-.7460317 1.75-1.6666666 1.75c-.920635 0-1.6666667-.7833333-1.6666667-1.75s.7460317-1.75 1.6666667-1.75zm-1.25 5.25h2.5v8.3125h-2.5zm8.0971277-.4375c1.4965986 0 2.6001512.6445672 2.6001512.6445672l-.8767952 1.869245s-.9070295-.5156538-1.723356-.5156538c-.5895692 0-.8314437.1127992-.8314437.4995396 0 .4350828.5442177.5639963 1.2093727.7895948 1.0279667.3383978 2.3582766.9507367 2.3582766 2.6427256 0 2.4332413-2.0861678 2.8199816-3.6734694 2.8199816-1.8745276 0-2.9931973-1.1118785-2.9931973-1.1118785l1.0884354-1.9498158s1.0582011.9507367 1.9198791.9507367c.3779289 0 .8314437-.0483426.8314437-.5962247 0-.5962247-.8465609-.6445672-1.7233561-1.1279927-.7860922-.4350828-1.5721844-1.0151933-1.5721844-2.2559852 0-1.691989 1.3454271-2.6588398 3.3862434-2.6588398zm8.8908666-4.8125v10.5h4.2620057v2.625h-7.0833334v-13.125zm5.095339 9.1955571c0-2.4171271 1.6041667-4.3830571 3.8958333-4.3830571 1.0541667 0 1.925.3706262 2.5666667 1.0313076v-.7895949h2.7041667v8.2665746h-2.6736111v-.9346225h-.0305556c-.5805556.6767956-1.4972222 1.1763352-2.5666667 1.1763352-2.2916666 0-3.8958333-1.9498158-3.8958333-4.3669429zm2.9166667.218862c0 1.1436722.753138 1.9605809 1.8828452 1.9605809 1.0826359 0 1.8671548-.8169087 1.8671548-1.9605809 0-1.1600104-.83159-1.9769191-1.8671548-1.9769191-1.0512553 0-1.8828452.8169087-1.8828452 1.9769191zm17.5-.1879191c0 2.4-1.6041667 4.336-3.8958334 4.336-1.0694444 0-1.9861111-.496-2.5666666-1.168h-.0305556v.928h-2.6736111v-13.76h2.7041667v6.336c.6416666-.656 1.5125-1.024 2.5666666-1.024 2.2916667 0 3.8958334 1.952 3.8958334 4.352zm-2.9166667.1879191c0-1.1600104-.83159-1.9769191-1.8828452-1.9769191-1.0355648 0-1.8671548.8169087-1.8671548 1.9769191 0 1.1436722.7845188 1.9605809 1.8671548 1.9605809 1.1297071 0 1.8828452-.8169087 1.8828452-1.9605809zm7.2637944-4.6019191c1.4965986 0 2.6001512.6445672 2.6001512.6445672l-.8767952 1.869245s-.9070295-.5156538-1.723356-.5156538c-.5895692 0-.8314437.1127992-.8314437.4995396 0 .4350828.5442177.5639963 1.2093727.7895948 1.0279667.3383978 2.3582766.9507367 2.3582766 2.6427256 0 2.4332413-2.0861678 2.8199816-3.6734694 2.8199816-1.8745276 0-2.9931973-1.1118785-2.9931973-1.1118785l1.0884354-1.9498158s1.0582011.9507367 1.9198791.9507367c.3779289 0 .8314437-.0483426.8314437-.5962247 0-.5962247-.8465609-.6445672-1.7233561-1.1279927-.7860922-.4350828-1.5721844-1.0151933-1.5721844-2.2559852 0-1.691989 1.3454271-2.6588398 3.3862434-2.6588398z" fill-rule="evenodd" transform="translate(-1 -84)"/></svg>